<svg xmlns="http://www.w3.org/2000/svg" width="600" height="540" viewBox="0 0 600 540" fill="none" role="img" aria-label="Abstract molecular structure">
  <defs>
    <radialGradient id="g1" cx="35%" cy="32%" r="68%">
      <stop offset="0%" stop-color="#5fa394"></stop>
      <stop offset="55%" stop-color="#265c53"></stop>
      <stop offset="100%" stop-color="#11302b"></stop>
    </radialGradient>
    <radialGradient id="g2" cx="35%" cy="32%" r="68%">
      <stop offset="0%" stop-color="#8ABDB3"></stop>
      <stop offset="55%" stop-color="#347a6e"></stop>
      <stop offset="100%" stop-color="#18443c"></stop>
    </radialGradient>
    <radialGradient id="g3" cx="35%" cy="30%" r="70%">
      <stop offset="0%" stop-color="#eef7c4"></stop>
      <stop offset="55%" stop-color="#CDD849"></stop>
      <stop offset="100%" stop-color="#9aa524"></stop>
    </radialGradient>
    <radialGradient id="gw" cx="35%" cy="30%" r="70%">
      <stop offset="0%" stop-color="#ffffff"></stop>
      <stop offset="55%" stop-color="#e1efec"></stop>
      <stop offset="100%" stop-color="#8ABDB3"></stop>
    </radialGradient>
    <filter id="soft" x="-20%" y="-20%" width="140%" height="140%">
      <feGaussianBlur stdDeviation="6"></feGaussianBlur>
    </filter>
  </defs>

  
  <ellipse cx="300" cy="470" rx="220" ry="20" fill="#265c53" opacity="0.10" filter="url(#soft)"></ellipse>

  
  <g stroke="#3e4845" stroke-width="6" stroke-linecap="round" opacity="0.65">
    <line x1="300" y1="260" x2="160" y2="170"></line>
    <line x1="300" y1="260" x2="460" y2="140"></line>
    <line x1="300" y1="260" x2="430" y2="370"></line>
    <line x1="300" y1="260" x2="180" y2="370"></line>
    <line x1="300" y1="260" x2="310" y2="90"></line>
    <line x1="160" y1="170" x2="80" y2="270"></line>
    <line x1="460" y1="140" x2="540" y2="240"></line>
    <line x1="430" y1="370" x2="350" y2="470"></line>
    <line x1="180" y1="370" x2="250" y2="470"></line>
  </g>

  
  <g>
    <circle cx="80" cy="270" r="28" fill="url(#g2)"></circle>
    <circle cx="540" cy="240" r="26" fill="url(#g2)"></circle>
    <circle cx="350" cy="470" r="22" fill="url(#gw)" stroke="#cdd4d2" stroke-width="1"></circle>
    <circle cx="250" cy="470" r="22" fill="url(#gw)" stroke="#cdd4d2" stroke-width="1"></circle>
    <circle cx="310" cy="90" r="34" fill="url(#g3)"></circle>
    <circle cx="160" cy="170" r="36" fill="url(#g1)"></circle>
    <circle cx="460" cy="140" r="36" fill="url(#g1)"></circle>
    <circle cx="430" cy="370" r="32" fill="url(#g1)"></circle>
    <circle cx="180" cy="370" r="32" fill="url(#g1)"></circle>
    
    <circle cx="300" cy="260" r="58" fill="url(#g1)"></circle>
    
    <ellipse cx="282" cy="240" rx="20" ry="12" fill="#ffffff" opacity="0.28"></ellipse>
  </g>
</svg>